<?xml version="1.0" encoding="UTF-8"?>
<svg version="1.1" xmlns="http://www.w3.org/2000/svg" width="658" height="673">
<path d="M0 0 C3.9723338 0.00020684 7.94466068 -0.00534136 11.91699111 -0.01005757 C19.67442715 -0.01830493 27.43185557 -0.02110973 35.18929563 -0.02166995 C41.50767962 -0.02214803 47.82606114 -0.02421725 54.14444435 -0.02737057 C72.13063146 -0.03616179 90.11681265 -0.04079247 108.10300193 -0.0400401 C109.06925798 -0.04000014 110.03551403 -0.03996019 111.03105056 -0.03991902 C111.99851178 -0.03987814 112.965973 -0.03983726 113.96275123 -0.03979514 C129.61540771 -0.03938933 145.26804005 -0.04894645 160.92068956 -0.06305739 C177.06370127 -0.07749337 193.20670127 -0.08432359 209.34971958 -0.08346361 C218.38414023 -0.08313407 227.4185356 -0.08577295 236.45295036 -0.09664166 C244.14920602 -0.10584249 251.84542494 -0.1078448 259.54168377 -0.10113224 C263.4524285 -0.09791423 267.36310316 -0.097634 271.27384079 -0.10648549 C331.63813411 -0.23447981 331.63813411 -0.23447981 349.09330642 6.34704387 C351.0396774 7.07293724 352.9957267 7.77274569 354.95268142 8.46960247 C393.18736809 22.14456259 424.60585147 49.2866711 442.23393142 86.14538372 C447.58160734 97.82118107 451.58921335 109.57923739 454.23393142 122.14538372 C454.39163167 122.89219591 454.54933191 123.6390081 454.71181095 124.40845096 C458.10302564 142.18505044 457.52874266 160.29334607 457.51003981 178.30683315 C457.50755074 182.80592804 457.51661346 187.30500302 457.5240773 191.80409038 C457.53676574 200.59551858 457.53862538 209.38691616 457.53627703 218.17835198 C457.53448733 225.33021416 457.53625742 232.4820671 457.54050148 239.63392818 C457.54109666 240.65537392 457.54169185 241.67681967 457.54230508 242.72921831 C457.54351694 244.80488307 457.54473108 246.88054784 457.54594745 248.9562126 C457.55680018 268.38027878 457.55467111 287.80432755 457.54856261 307.2283947 C457.543394 324.96114284 457.55465149 342.69383604 457.57366083 360.42657332 C457.593076 378.67920523 457.60128888 396.93181119 457.59753758 415.18445349 C457.5956313 425.41407738 457.59805704 435.6436545 457.61225212 445.87326992 C457.62421382 454.58073351 457.62551733 463.28812154 457.61346195 471.99558626 C457.60760706 476.4295216 457.60637889 480.86331906 457.61846435 485.29724491 C457.6713475 506.10727547 457.64348443 526.58419547 451.54643142 546.70788372 C451.29296951 547.56519084 451.03950759 548.42249797 450.77836502 549.30578411 C443.43777168 573.29371583 431.54529285 593.91147325 414.23393142 612.14538372 C413.5305867 612.89755168 413.5305867 612.89755168 412.81303298 613.66491497 C389.58746285 638.37872552 361.69947224 650.11737503 329.23393142 658.14538372 C329.23393142 658.47538372 329.23393142 658.80538372 329.23393142 659.14538372 C281.13003196 659.16825349 233.02613307 659.18588368 184.92222924 659.19644905 C179.24805379 659.19769981 173.57387834 659.19899413 167.89970291 659.20031536 C166.77003745 659.20057767 165.640372 659.20083998 164.47647426 659.20111024 C146.16529638 659.20546608 127.85412162 659.21335316 109.54294559 659.22253651 C90.76551524 659.23187542 71.98808653 659.23743983 53.21065396 659.23947221 C41.61630018 659.24084694 30.02195524 659.24519486 18.42760418 659.25330018 C10.48581995 659.25857056 2.54404032 659.26018734 -5.39774553 659.25888509 C-9.9853519 659.25824217 -14.57294278 659.25925408 -19.16054642 659.26458919 C-23.35562038 659.26943241 -27.55066835 659.26971623 -31.74574348 659.26628261 C-33.26799457 659.26585783 -34.79024725 659.2671458 -36.31249521 659.2702669 C-38.37288212 659.27424766 -40.43317372 659.27213653 -42.493559 659.26843154 C-44.21426168 659.26900112 -44.21426168 659.26900112 -45.96972603 659.26958221 C-48.76606858 659.14538372 -48.76606858 659.14538372 -51.76606858 658.14538372 C-53.49594316 657.7320226 -55.22958597 657.33433282 -56.96528733 656.94616497 C-82.09324662 651.21697462 -103.14697006 642.80349613 -123.76606858 627.14538372 C-124.71224045 626.44671184 -125.65841233 625.74803997 -126.63325608 625.02819622 C-131.22300884 621.58230707 -131.22300884 621.58230707 -132.76606858 620.14538372 C-132.76606858 619.48538372 -132.76606858 618.82538372 -132.76606858 618.14538372 C-133.32294358 617.93913372 -133.87981858 617.73288372 -134.45356858 617.52038372 C-137.05944094 615.97094609 -138.62159984 614.06874693 -140.48872483 611.70788372 C-141.87474917 609.95229938 -141.87474917 609.95229938 -144.14106858 607.83288372 C-147.11796012 604.7851138 -149.64452965 601.52524107 -152.21528733 598.13366497 C-153.75882144 596.07083991 -153.75882144 596.07083991 -155.76606858 594.14538372 C-158.59131546 589.56927962 -161.1750688 584.8567119 -163.76606858 580.14538372 C-164.10476975 579.53887981 -164.44347092 578.9323759 -164.79243577 578.30749309 C-172.12483253 565.05028994 -176.98037914 550.67236204 -180.86763108 536.05553997 C-181.54618931 533.05389356 -181.54618931 533.05389356 -183.76606858 531.14538372 C-183.43606858 530.15538372 -183.10606858 529.16538372 -182.76606858 528.14538372 C-182.73852665 526.24302366 -182.77649493 524.3394128 -182.85200608 522.43835247 C-182.89527024 521.30139934 -182.9385344 520.16444622 -182.98310959 518.99303997 C-183.03523606 517.7851884 -183.08736252 516.57733684 -183.14106858 515.33288372 C-183.18997239 514.10053997 -183.23887619 512.86819622 -183.28926194 511.59850872 C-183.53708138 505.60326081 -183.83560033 499.62530286 -184.32856858 493.64538372 C-184.76208641 488.18168273 -184.87372625 482.74845577 -184.89106858 477.27038372 C-184.89566086 476.48470012 -184.90025315 475.69901653 -184.90498459 474.88952434 C-184.89498335 471.12265604 -184.72547235 467.49443086 -184.19575608 463.76257122 C-183.5119147 460.19796588 -183.5119147 460.19796588 -184.76606858 457.14538372 C-184.86177025 454.85919719 -184.89680777 452.57029025 -184.89888108 450.28210247 C-184.8998378 449.61249996 -184.90079453 448.94289745 -184.90178025 448.25300395 C-184.90246016 446.83667711 -184.90061903 445.42034713 -184.89643967 444.00402629 C-184.8911139 441.85120307 -184.89637793 439.69859087 -184.90278733 437.54577434 C-184.90212602 436.16621659 -184.90084377 434.78665898 -184.89888108 433.40710247 C-184.89775315 432.15888713 -184.89662522 430.9106718 -184.89546311 429.62463176 C-184.77455167 426.37348292 -184.31603787 423.34517853 -183.76606858 420.14538372 C-184.08085303 418.80754978 -184.41194514 417.47334662 -184.76606858 416.14538372 C-184.44226731 414.8097035 -184.10949307 413.47615361 -183.76606858 412.14538372 C-184.26106858 410.66038372 -184.26106858 410.66038372 -184.76606858 409.14538372 C-184.92771306 404.05358263 -184.69758461 399.15135985 -184.20356858 394.08288372 C-183.87560994 390.54272744 -183.72787344 387.3481836 -184.26606858 383.83288372 C-184.78931465 379.97394393 -184.32325127 376.97601472 -183.76606858 373.14538372 C-184.07469327 370.80865387 -184.41063431 368.47545282 -184.76606858 366.14538372 C-185.1329164 357.24592719 -185.1329164 357.24592719 -183.76606858 353.14538372 C-183.93106858 352.23788372 -184.09606858 351.33038372 -184.26606858 350.39538372 C-184.82812049 346.74204626 -184.32496173 343.77818922 -183.76606858 340.14538372 C-184.09606858 339.48538372 -184.42606858 338.82538372 -184.76606858 338.14538372 C-184.83711535 336.35500503 -184.85018375 334.56204112 -184.82856858 332.77038372 C-184.81954514 331.81389934 -184.8105217 330.85741497 -184.80122483 329.87194622 C-184.78962327 328.97218059 -184.7780217 328.07241497 -184.76606858 327.14538372 C-184.76606858 324.19694649 -184.77870819 321.24988852 -184.80122483 318.30163372 C-184.81050606 316.41621786 -184.81961476 314.53080115 -184.82856858 312.64538372 C-184.83694748 311.69534465 -184.84532639 310.74530559 -184.8539592 309.76647747 C-184.85718186 308.84995403 -184.86040452 307.93343059 -184.86372483 306.98913372 C-184.86896164 306.15575481 -184.87419846 305.3223759 -184.87959397 304.46374309 C-184.76606858 302.14538372 -184.76606858 302.14538372 -184.23310959 300.07311809 C-183.56906863 297.33225689 -184.14830787 294.83136674 -184.49946702 292.06725872 C-185.03360317 286.21328294 -184.91267695 280.32080232 -184.89643967 274.44665325 C-184.89114515 272.17819122 -184.89637508 269.90993296 -184.90278733 267.64147747 C-184.90572354 259.31743872 -184.68351327 251.05012482 -184.07151902 242.74670208 C-183.71754094 237.71118061 -184.07876543 233.12833152 -184.76606858 228.14538372 C-184.43606858 227.15538372 -184.10606858 226.16538372 -183.76606858 225.14538372 C-183.85017686 223.35678203 -184.00198613 221.57100043 -184.19307053 219.79064739 C-184.81629867 213.12188745 -184.92759642 206.51565701 -184.93403733 199.82116497 C-184.93736573 198.59431484 -184.94069413 197.36746471 -184.94412339 196.1034373 C-184.94915192 193.52945121 -184.95153298 190.9554587 -184.95137131 188.3814677 C-184.95356837 184.45826331 -184.97179659 180.5353358 -184.99067795 176.61218059 C-184.99361068 174.09850967 -184.99559628 171.58483742 -184.99653733 169.07116497 C-185.00372284 167.90845577 -185.01090836 166.74574657 -185.01831162 165.54780376 C-185.00028304 159.09159581 -184.43268488 153.38869268 -182.76606858 147.14538372 C-183.42606858 147.14538372 -184.08606858 147.14538372 -184.76606858 147.14538372 C-184.27106858 146.15538372 -184.27106858 146.15538372 -183.76606858 145.14538372 C-183.59019774 143.36124821 -183.41900879 141.57651018 -183.27314866 139.78967083 C-180.38745528 106.13531708 -166.84405119 75.24539974 -143.90278733 50.47350872 C-142.03131243 48.43438799 -140.27423158 46.34372618 -138.51606858 44.20788372 C-120.65978705 23.84761789 -94.37175653 11.42512195 -68.76606858 4.14538372 C-68.10606858 3.81538372 -67.44606858 3.48538372 -66.76606858 3.14538372 C-44.67923579 -0.29392845 -22.28788898 -0.00726371 0 0 Z M-183.76606858 292.14538372 C-182.76606858 294.14538372 -182.76606858 294.14538372 -182.76606858 294.14538372 Z " fill="#294262" transform="translate(193.76606857776642,5.854616284370422)"/>
<path d="M0 0 C18.81 0 37.62 0 57 0 C57 12.21 57 24.42 57 37 C61.29 37.66 65.58 38.32 70 39 C97.69663235 44.98131956 125.58958222 59.11047966 142.015625 82.921875 C149.19568704 94.15784994 154.64008644 105.32468598 157.875 118.25 C158.07826904 119.03375 158.28153809 119.8175 158.4909668 120.625 C160.61036843 129.84793096 160.48465649 138.2084734 161 148 C138.56 148 116.12 148 93 148 C92.01 141.73 91.02 135.46 90 129 C86.11833894 117.35501681 80.59607731 108.46601355 69.78515625 102.25390625 C65.97684925 100.53936691 61.96214117 99.32071372 58 98 C58 127.37 58 156.74 58 187 C60.97 187.33 63.94 187.66 67 188 C69.27790728 188.58268324 71.53887572 189.23723444 73.7734375 189.96875 C75.0011084 190.37029297 76.2287793 190.77183594 77.49365234 191.18554688 C78.78792494 191.62224823 80.08169891 192.06042984 81.375 192.5 C82.36877655 192.83463257 82.36877655 192.83463257 83.38262939 193.17602539 C106.61974762 201.0358345 127.64737721 211.39850489 145 229 C145.75925781 229.74894531 146.51851562 230.49789062 147.30078125 231.26953125 C163.05005082 247.75274736 168.45122932 269.84599529 168.50708008 292.06689453 C167.82988194 320.23358498 155.91046342 344.38763597 135.76953125 363.63671875 C116.30044163 381.49137233 84.55650196 396 58 396 C58 408.54 58 421.08 58 434 C38.86 434 19.72 434 0 434 C-0.33 421.79 -0.66 409.58 -1 397 C-6.94 395.68 -12.88 394.36 -19 393 C-22.10332468 392.14032711 -25.09518684 391.29171104 -28.125 390.25 C-28.8567041 390.0010498 -29.5884082 389.75209961 -30.34228516 389.49560547 C-47.21082834 383.54093343 -62.08180145 374.3790763 -75 362 C-75.83402344 361.24074219 -76.66804688 360.48148437 -77.52734375 359.69921875 C-96.0159293 342.29316979 -105.32626004 316.83337268 -108 292 C-108 286.72 -108 281.44 -108 276 C-85.23 276 -62.46 276 -39 276 C-38.505 284.415 -38.505 284.415 -38 293 C-34.46488847 307.40230622 -28.67373703 319.93361575 -15.7421875 328.04296875 C-10.53016385 330.92204787 -5.67463636 333.10845455 0 335 C0 304.31 0 273.62 0 242 C-4.29 241.34 -8.58 240.68 -13 240 C-16.94359158 239.03176584 -20.80174221 238.02756077 -24.6875 236.875 C-26.23606689 236.41649658 -26.23606689 236.41649658 -27.81591797 235.94873047 C-54.27949462 227.86434317 -77.80369909 214.14993451 -91.96875 189.5859375 C-100.42223898 173.43117677 -103.4318439 157.38491166 -103.375 139.3125 C-103.37318726 138.24743729 -103.37318726 138.24743729 -103.37133789 137.16085815 C-103.27021869 115.28982266 -97.06798238 96.02118479 -83 79 C-82.32453125 78.16210938 -81.6490625 77.32421875 -80.953125 76.4609375 C-60.95509998 52.88662333 -30.54293719 42.35029571 -1 37 C-0.67 24.79 -0.34 12.58 0 0 Z " fill="#92C4FE" transform="translate(301,124)"/>
<path d="M0 0 C3.9723338 0.00020684 7.94466068 -0.00534136 11.91699111 -0.01005757 C19.67442715 -0.01830493 27.43185557 -0.02110973 35.18929563 -0.02166995 C41.50767962 -0.02214803 47.82606114 -0.02421725 54.14444435 -0.02737057 C72.13063146 -0.03616179 90.11681265 -0.04079247 108.10300193 -0.0400401 C109.06925798 -0.04000014 110.03551403 -0.03996019 111.03105056 -0.03991902 C111.99851178 -0.03987814 112.965973 -0.03983726 113.96275123 -0.03979514 C129.61540771 -0.03938933 145.26804005 -0.04894645 160.92068956 -0.06305739 C177.06370127 -0.07749337 193.20670127 -0.08432359 209.34971958 -0.08346361 C218.38414023 -0.08313407 227.4185356 -0.08577295 236.45295036 -0.09664166 C244.14920602 -0.10584249 251.84542494 -0.1078448 259.54168377 -0.10113224 C263.4524285 -0.09791423 267.36310316 -0.097634 271.27384079 -0.10648549 C331.63813411 -0.23447981 331.63813411 -0.23447981 349.09330642 6.34704387 C351.0396774 7.07293724 352.9957267 7.77274569 354.95268142 8.46960247 C393.18736809 22.14456259 424.60585147 49.2866711 442.23393142 86.14538372 C447.58160734 97.82118107 451.58921335 109.57923739 454.23393142 122.14538372 C454.39163167 122.89219591 454.54933191 123.6390081 454.71181095 124.40845096 C458.10302564 142.18505044 457.52874266 160.29334607 457.51003981 178.30683315 C457.50755074 182.80592804 457.51661346 187.30500302 457.5240773 191.80409038 C457.53676574 200.59551858 457.53862538 209.38691616 457.53627703 218.17835198 C457.53448733 225.33021416 457.53625742 232.4820671 457.54050148 239.63392818 C457.54109666 240.65537392 457.54169185 241.67681967 457.54230508 242.72921831 C457.54351694 244.80488307 457.54473108 246.88054784 457.54594745 248.9562126 C457.55680018 268.38027878 457.55467111 287.80432755 457.54856261 307.2283947 C457.543394 324.96114284 457.55465149 342.69383604 457.57366083 360.42657332 C457.593076 378.67920523 457.60128888 396.93181119 457.59753758 415.18445349 C457.5956313 425.41407738 457.59805704 435.6436545 457.61225212 445.87326992 C457.62421382 454.58073351 457.62551733 463.28812154 457.61346195 471.99558626 C457.60760706 476.4295216 457.60637889 480.86331906 457.61846435 485.29724491 C457.6713475 506.10727547 457.64348443 526.58419547 451.54643142 546.70788372 C451.29296951 547.56519084 451.03950759 548.42249797 450.77836502 549.30578411 C443.43777168 573.29371583 431.54529285 593.91147325 414.23393142 612.14538372 C413.5305867 612.89755168 413.5305867 612.89755168 412.81303298 613.66491497 C389.58746285 638.37872552 361.69947224 650.11737503 329.23393142 658.14538372 C329.23393142 658.47538372 329.23393142 658.80538372 329.23393142 659.14538372 C281.13003196 659.16825349 233.02613307 659.18588368 184.92222924 659.19644905 C179.24805379 659.19769981 173.57387834 659.19899413 167.89970291 659.20031536 C166.77003745 659.20057767 165.640372 659.20083998 164.47647426 659.20111024 C146.16529638 659.20546608 127.85412162 659.21335316 109.54294559 659.22253651 C90.76551524 659.23187542 71.98808653 659.23743983 53.21065396 659.23947221 C41.61630018 659.24084694 30.02195524 659.24519486 18.42760418 659.25330018 C10.48581995 659.25857056 2.54404032 659.26018734 -5.39774553 659.25888509 C-9.9853519 659.25824217 -14.57294278 659.25925408 -19.16054642 659.26458919 C-23.35562038 659.26943241 -27.55066835 659.26971623 -31.74574348 659.26628261 C-33.26799457 659.26585783 -34.79024725 659.2671458 -36.31249521 659.2702669 C-38.37288212 659.27424766 -40.43317372 659.27213653 -42.493559 659.26843154 C-44.21426168 659.26900112 -44.21426168 659.26900112 -45.96972603 659.26958221 C-48.76606858 659.14538372 -48.76606858 659.14538372 -51.76606858 658.14538372 C-53.49594316 657.7320226 -55.22958597 657.33433282 -56.96528733 656.94616497 C-82.09324662 651.21697462 -103.14697006 642.80349613 -123.76606858 627.14538372 C-124.71224045 626.44671184 -125.65841233 625.74803997 -126.63325608 625.02819622 C-131.22300884 621.58230707 -131.22300884 621.58230707 -132.76606858 620.14538372 C-132.76606858 619.48538372 -132.76606858 618.82538372 -132.76606858 618.14538372 C-133.32294358 617.93913372 -133.87981858 617.73288372 -134.45356858 617.52038372 C-137.05944094 615.97094609 -138.62159984 614.06874693 -140.48872483 611.70788372 C-141.87474917 609.95229938 -141.87474917 609.95229938 -144.14106858 607.83288372 C-147.11796012 604.7851138 -149.64452965 601.52524107 -152.21528733 598.13366497 C-153.75882144 596.07083991 -153.75882144 596.07083991 -155.76606858 594.14538372 C-158.59131546 589.56927962 -161.1750688 584.8567119 -163.76606858 580.14538372 C-164.10476975 579.53887981 -164.44347092 578.9323759 -164.79243577 578.30749309 C-172.12483253 565.05028994 -176.98037914 550.67236204 -180.86763108 536.05553997 C-181.54618931 533.05389356 -181.54618931 533.05389356 -183.76606858 531.14538372 C-183.43606858 530.15538372 -183.10606858 529.16538372 -182.76606858 528.14538372 C-182.73852665 526.24302366 -182.77649493 524.3394128 -182.85200608 522.43835247 C-182.89527024 521.30139934 -182.9385344 520.16444622 -182.98310959 518.99303997 C-183.03523606 517.7851884 -183.08736252 516.57733684 -183.14106858 515.33288372 C-183.18997239 514.10053997 -183.23887619 512.86819622 -183.28926194 511.59850872 C-183.53708138 505.60326081 -183.83560033 499.62530286 -184.32856858 493.64538372 C-184.76208641 488.18168273 -184.87372625 482.74845577 -184.89106858 477.27038372 C-184.89566086 476.48470012 -184.90025315 475.69901653 -184.90498459 474.88952434 C-184.89498335 471.12265604 -184.72547235 467.49443086 -184.19575608 463.76257122 C-183.5119147 460.19796588 -183.5119147 460.19796588 -184.76606858 457.14538372 C-184.86177025 454.85919719 -184.89680777 452.57029025 -184.89888108 450.28210247 C-184.8998378 449.61249996 -184.90079453 448.94289745 -184.90178025 448.25300395 C-184.90246016 446.83667711 -184.90061903 445.42034713 -184.89643967 444.00402629 C-184.8911139 441.85120307 -184.89637793 439.69859087 -184.90278733 437.54577434 C-184.90212602 436.16621659 -184.90084377 434.78665898 -184.89888108 433.40710247 C-184.89775315 432.15888713 -184.89662522 430.9106718 -184.89546311 429.62463176 C-184.77455167 426.37348292 -184.31603787 423.34517853 -183.76606858 420.14538372 C-184.08085303 418.80754978 -184.41194514 417.47334662 -184.76606858 416.14538372 C-184.44226731 414.8097035 -184.10949307 413.47615361 -183.76606858 412.14538372 C-184.26106858 410.66038372 -184.26106858 410.66038372 -184.76606858 409.14538372 C-184.92771306 404.05358263 -184.69758461 399.15135985 -184.20356858 394.08288372 C-183.87560994 390.54272744 -183.72787344 387.3481836 -184.26606858 383.83288372 C-184.78931465 379.97394393 -184.32325127 376.97601472 -183.76606858 373.14538372 C-184.07469327 370.80865387 -184.41063431 368.47545282 -184.76606858 366.14538372 C-185.1329164 357.24592719 -185.1329164 357.24592719 -183.76606858 353.14538372 C-183.93106858 352.23788372 -184.09606858 351.33038372 -184.26606858 350.39538372 C-184.82812049 346.74204626 -184.32496173 343.77818922 -183.76606858 340.14538372 C-184.09606858 339.48538372 -184.42606858 338.82538372 -184.76606858 338.14538372 C-184.83711535 336.35500503 -184.85018375 334.56204112 -184.82856858 332.77038372 C-184.81954514 331.81389934 -184.8105217 330.85741497 -184.80122483 329.87194622 C-184.78962327 328.97218059 -184.7780217 328.07241497 -184.76606858 327.14538372 C-184.76606858 324.19694649 -184.77870819 321.24988852 -184.80122483 318.30163372 C-184.81050606 316.41621786 -184.81961476 314.53080115 -184.82856858 312.64538372 C-184.83694748 311.69534465 -184.84532639 310.74530559 -184.8539592 309.76647747 C-184.85718186 308.84995403 -184.86040452 307.93343059 -184.86372483 306.98913372 C-184.86896164 306.15575481 -184.87419846 305.3223759 -184.87959397 304.46374309 C-184.76606858 302.14538372 -184.76606858 302.14538372 -184.23310959 300.07311809 C-183.56906863 297.33225689 -184.14830787 294.83136674 -184.49946702 292.06725872 C-185.03360317 286.21328294 -184.91267695 280.32080232 -184.89643967 274.44665325 C-184.89114515 272.17819122 -184.89637508 269.90993296 -184.90278733 267.64147747 C-184.90572354 259.31743872 -184.68351327 251.05012482 -184.07151902 242.74670208 C-183.71754094 237.71118061 -184.07876543 233.12833152 -184.76606858 228.14538372 C-184.43606858 227.15538372 -184.10606858 226.16538372 -183.76606858 225.14538372 C-183.85017686 223.35678203 -184.00198613 221.57100043 -184.19307053 219.79064739 C-184.81629867 213.12188745 -184.92759642 206.51565701 -184.93403733 199.82116497 C-184.93736573 198.59431484 -184.94069413 197.36746471 -184.94412339 196.1034373 C-184.94915192 193.52945121 -184.95153298 190.9554587 -184.95137131 188.3814677 C-184.95356837 184.45826331 -184.97179659 180.5353358 -184.99067795 176.61218059 C-184.99361068 174.09850967 -184.99559628 171.58483742 -184.99653733 169.07116497 C-185.00372284 167.90845577 -185.01090836 166.74574657 -185.01831162 165.54780376 C-185.00028304 159.09159581 -184.43268488 153.38869268 -182.76606858 147.14538372 C-183.42606858 147.14538372 -184.08606858 147.14538372 -184.76606858 147.14538372 C-184.27106858 146.15538372 -184.27106858 146.15538372 -183.76606858 145.14538372 C-183.59019774 143.36124821 -183.41900879 141.57651018 -183.27314866 139.78967083 C-180.38745528 106.13531708 -166.84405119 75.24539974 -143.90278733 50.47350872 C-142.03131243 48.43438799 -140.27423158 46.34372618 -138.51606858 44.20788372 C-120.65978705 23.84761789 -94.37175653 11.42512195 -68.76606858 4.14538372 C-68.10606858 3.81538372 -67.44606858 3.48538372 -66.76606858 3.14538372 C-44.67923579 -0.29392845 -22.28788898 -0.00726371 0 0 Z M-133.48481858 66.24303997 C-145.17544599 81.1165608 -153.87206423 98.00480708 -159.1777277 116.15585232 C-159.70980382 117.95511902 -160.27459219 119.7446327 -160.84315693 121.53270423 C-165.15795836 137.39396353 -164.32946923 153.81194153 -164.2743082 170.1116972 C-164.26310342 174.72730838 -164.27517211 179.34287082 -164.28415024 183.95847881 C-164.29802023 192.9775448 -164.29057306 201.99646993 -164.27547466 211.0155291 C-164.25853837 221.53645212 -164.26183438 232.05734079 -164.26556874 242.57827323 C-164.27143582 261.35986767 -164.25732071 280.14139488 -164.23262131 298.92297161 C-164.20870055 317.114729 -164.2016199 335.30639662 -164.2121135 353.49816692 C-164.22354273 373.34726604 -164.22542829 393.19632373 -164.2110154 413.04542238 C-164.20948969 415.16501538 -164.20796934 417.28460838 -164.2064544 419.40420139 C-164.20569658 420.44686141 -164.20493877 421.48952142 -164.20415799 422.5637772 C-164.19943091 429.88375669 -164.20125535 437.20371758 -164.2055198 444.52369678 C-164.21046471 453.45303865 -164.20438103 462.38229593 -164.1846255 471.31161851 C-164.17480648 475.86061377 -164.16958959 480.40948069 -164.17751801 484.95848262 C-164.18464606 489.1339219 -164.17760647 493.30910384 -164.15991438 497.48450952 C-164.15591554 498.9835862 -164.15679146 500.48268689 -164.16343325 501.98175419 C-164.30825911 537.7716304 -150.92021689 571.85684822 -126.76606858 598.14538372 C-125.97716233 599.01678997 -125.18825608 599.88819622 -124.37544358 600.78600872 C-104.88398225 621.31013024 -79.24269722 633.01420608 -51.76606858 638.14538372 C-50.35751304 638.41120928 -50.35751304 638.41120928 -48.92050183 638.68240505 C-45.69958338 639.1551418 -42.65879501 639.27427241 -39.40451157 639.27960479 C-38.13817667 639.28406264 -36.87184176 639.28852048 -35.56713307 639.29311341 C-34.16933357 639.29302413 -32.77153407 639.2928343 -31.37373459 639.29255474 C-29.8828072 639.29585622 -28.39188069 639.29958238 -26.90095532 639.30369622 C-22.80681069 639.3136929 -18.71268072 639.31742928 -14.61852562 639.32008553 C-10.20098481 639.32399577 -5.78345553 639.33357393 -1.36592209 639.34229839 C9.30437685 639.36204742 19.97467672 639.37212922 30.64498937 639.38102618 C35.67692616 639.38541358 40.70886191 639.39077939 45.74079788 639.39601505 C62.4825203 639.41302941 79.22424208 639.42752013 95.96597183 639.43476379 C100.30919795 639.43667353 104.65242407 639.43859388 108.99565017 639.44054973 C110.07507011 639.44103347 111.15449005 639.44151721 112.26661968 639.44201561 C129.72396322 639.45030289 147.18123794 639.47561683 164.63855147 639.50813041 C182.58570597 639.54128192 200.53282561 639.55922003 218.48001087 639.56240803 C228.54669925 639.56456617 238.61328742 639.57321179 248.67994583 639.5988692 C257.2599253 639.62068741 265.83978024 639.62857257 274.41978431 639.61890242 C278.7891238 639.61438904 283.15820699 639.6160686 287.52751052 639.63566387 C326.32266847 639.79972931 360.72944874 633.84187509 391.23393142 608.14538372 C392.17623611 607.36678997 393.1185408 606.58819622 394.08940017 605.78600872 C421.26954192 582.32444771 435.26531721 546.31308877 438.23393142 511.14538372 C438.74526139 500.19315448 438.65131525 489.22048871 438.62610543 478.25906098 C438.61924331 473.83498042 438.62983119 469.41093371 438.63804519 464.98686016 C438.65130924 456.34675363 438.64853772 447.70672577 438.63980727 439.0666163 C438.63300205 432.03779663 438.6321262 425.00899883 438.63537872 417.98017681 C438.63583842 416.97565421 438.63629812 415.97113161 438.63677175 414.93616894 C438.63773103 412.89480924 438.63870367 410.85344955 438.63968952 408.81208986 C438.64822194 389.71896724 438.63844311 370.62588799 438.62228842 351.53277248 C438.60888721 335.18861468 438.61121591 318.84452083 438.6250447 302.50036418 C438.6411386 283.47049062 438.64739817 264.44065496 438.63820791 245.41077554 C438.63725237 243.37738058 438.63630926 241.3439856 438.63537872 239.31059062 C438.63468448 237.81031125 438.63468448 237.81031125 438.63397621 236.2797232 C438.63139773 229.26820327 438.63573255 222.25670762 438.64281738 215.24519145 C438.65127506 206.68782156 438.64886326 198.1305341 438.63297515 189.57317352 C438.62514942 185.21618745 438.62190212 180.85933828 438.6319226 176.50235355 C438.67536288 155.91906562 438.56922515 135.64123072 432.67143142 115.70788372 C432.42312576 114.85718303 432.17482009 114.00648235 431.91899002 113.13000286 C425.55474239 92.49630282 414.48481764 75.14259638 400.23393142 59.14538372 C399.3425447 58.14378215 399.3425447 58.14378215 398.43315017 57.12194622 C376.52648145 33.96502096 341.63813433 19.99747845 310.07745528 19.05069292 C306.27421941 19.01074206 302.47161955 19.0022564 298.66824234 19.00494182 C297.19519861 19.00235437 295.72215557 18.99934016 294.2491135 18.99593842 C290.21857049 18.98790983 286.18804532 18.98608117 282.15749526 18.98534095 C277.8035187 18.98348316 273.44955124 18.97593222 269.09557998 18.96920574 C259.58294658 18.95565154 250.07031741 18.9496023 240.55767596 18.94519508 C234.61241445 18.94242782 228.66715456 18.93818961 222.72189415 18.93369091 C206.24510794 18.92150224 189.76832302 18.91120201 173.2915324 18.90781581 C172.23796865 18.90759625 171.1844049 18.90737668 170.09891498 18.90715046 C169.04290385 18.90693218 167.98689272 18.90671391 166.89888126 18.90648901 C164.75918118 18.90604556 162.61948111 18.90559899 160.47978103 18.90514934 C158.88775062 18.9048172 158.88775062 18.9048172 157.26355798 18.90447834 C140.07395922 18.90053208 122.88440289 18.88308148 105.69482052 18.85978982 C88.02558275 18.83604244 70.35636625 18.82361243 52.68711227 18.8224479 C42.77493977 18.82153306 32.86282257 18.81582905 22.95066535 18.79762828 C14.50893973 18.78218157 6.06728651 18.77713372 -2.37445057 18.78536639 C-6.6761909 18.7892567 -10.97778561 18.78842304 -15.27950776 18.77430904 C-19.22825611 18.7614724 -23.17675087 18.76285206 -27.12549936 18.77489975 C-28.5434085 18.77684 -29.96133622 18.77385707 -31.37921936 18.76505539 C-70.95646875 18.53520539 -107.64500146 36.61151055 -133.48481858 66.24303997 Z M-183.76606858 292.14538372 C-182.76606858 294.14538372 -182.76606858 294.14538372 -182.76606858 294.14538372 Z " fill="#93C2FD" transform="translate(193.76606857776642,5.854616284370422)"/>
<path d="M0 0 C10.49166678 1.49880954 19.94165442 5.85852082 26.76953125 14.1484375 C34.77508383 24.83374347 37.17698664 34.68987944 36 48 C34.32127838 58.04458227 29.12040558 67.07144864 21.19921875 73.46875 C14.27731377 78.28826466 8.36389581 80.14135649 0 82 C0 54.94 0 27.88 0 0 Z " fill="#243C5C" transform="translate(359,377)"/>
<path d="M0 0 C0 24.75 0 49.5 0 75 C-8.61782263 73.56369623 -16.07757377 69.54583952 -22 63 C-29.20295708 52.67686797 -32.3033413 42.63474385 -31 30 C-28.13615894 18.93579453 -21.42379712 10.4686319 -11.75 4.5 C-3.74418605 0 -3.74418605 0 0 0 Z " fill="#263F60" transform="translate(301,222)"/>
<path d="M0 0 C8.43274043 1.05409255 16.72754477 3.05353995 25 5 C25 35.69 25 66.38 25 98 C12.82094746 94.95523687 3.95208839 89.915567 -4 80 C-4.7734375 77.6953125 -4.7734375 77.6953125 -5 76 C-4.319375 76.680625 -3.63875 77.36125 -2.9375 78.0625 C-2.46828125 78.52140625 -1.9990625 78.9803125 -1.515625 79.453125 C0 81 0 81 1.328125 82.609375 C7.63118317 89.8413049 13.35853103 91.17926552 23 96 C23 66.3 23 36.6 23 6 C18.71 5.34 14.42 4.68 10 4 C6.61655242 3.05408993 3.3152663 2.12255066 0 1 C0 0.67 0 0.34 0 0 Z " fill="#0E2044" transform="translate(276,361)"/>
<path d="M0 0 C-3.03525486 2.02350324 -4.19426202 2.32124018 -7.6875 2.625 C-8.49574219 2.69976563 -9.30398438 2.77453125 -10.13671875 2.8515625 C-10.75160156 2.90054688 -11.36648438 2.94953125 -12 3 C-11.99476318 4.11560303 -11.98952637 5.23120605 -11.98413086 6.38061523 C-11.96608225 10.50479333 -11.95456851 14.62896791 -11.94506836 18.75317383 C-11.94002782 20.54094021 -11.93319546 22.32870245 -11.92456055 24.11645508 C-11.9124827 26.68051168 -11.90676906 29.24451397 -11.90234375 31.80859375 C-11.89718246 32.6127623 -11.89202118 33.41693085 -11.88670349 34.24546814 C-11.88650785 36.16401715 -11.93798017 38.08245368 -12 40 C-13.72815482 41.72815482 -16.05096239 41.13648091 -18.40600586 41.14526367 C-19.56067856 41.15164352 -20.71535126 41.15802338 -21.90501404 41.16459656 C-23.16225784 41.16570938 -24.41950165 41.1668222 -25.71484375 41.16796875 C-26.99605606 41.17129715 -28.27726837 41.17462555 -29.5973053 41.17805481 C-32.3134953 41.18405192 -35.02965345 41.18589413 -37.74584961 41.18530273 C-41.23090592 41.1852011 -44.71575855 41.19885216 -48.20076656 41.21607494 C-51.51796233 41.22985066 -54.8351197 41.22928324 -58.15234375 41.23046875 C-59.40756332 41.23765427 -60.6627829 41.24483978 -61.95603943 41.25224304 C-63.11386429 41.24916641 -64.27168915 41.24608978 -65.46459961 41.24291992 C-66.48750595 41.24434494 -67.51041229 41.24576996 -68.5643158 41.24723816 C-71 41 -71 41 -73 39 C-73.17517747 36.27514272 -73.23149133 33.65340638 -73.1953125 30.9296875 C-73.19106766 29.73534592 -73.19106766 29.73534592 -73.18673706 28.51687622 C-73.1755264 25.96943237 -73.15042062 23.42233789 -73.125 20.875 C-73.11497133 19.14974465 -73.10584528 17.42448381 -73.09765625 15.69921875 C-73.07558422 11.46601086 -73.04104867 7.2330647 -73 3 C-75.97 2.505 -75.97 2.505 -79 2 C-79 1.67 -79 1.34 -79 1 C-76.66705225 0.95758277 -74.33297433 0.95907063 -72 1 C-71 2 -71 2 -70.88647461 5.51000977 C-70.88672569 7.07048421 -70.8922866 8.6309642 -70.90234375 10.19140625 C-70.90335083 10.91775269 -70.90435791 11.64409912 -70.90539551 12.39245605 C-70.91064284 15.11582001 -70.924604 17.83916153 -70.9375 20.5625 C-70.958125 26.646875 -70.97875 32.73125 -71 39 C-51.86 39 -32.72 39 -13 39 C-13 26.46 -13 13.92 -13 1 C-8.41510669 0.23585111 -4.58535136 -0.09170703 0 0 Z " fill="#0B1835" transform="translate(372,519)"/>
<path d="M0 0 C0.33 0.66 0.66 1.32 1 2 C1.99 2.33 2.98 2.66 4 3 C4 23.46 4 43.92 4 65 C2.68 64.67 1.36 64.34 0 64 C0.33 63.01 0.66 62.02 1 61 C0.835 60.0925 0.67 59.185 0.5 58.25 C-0.06205192 54.59666255 0.44110685 51.6328055 1 48 C0.67 47.34 0.34 46.68 0 46 C-0.07104677 44.20962132 -0.08411517 42.4166574 -0.0625 40.625 C-0.05347656 39.66851562 -0.04445313 38.71203125 -0.03515625 37.7265625 C-0.02355469 36.82679688 -0.01195312 35.92703125 0 35 C0 32.05156277 -0.01263961 29.10450481 -0.03515625 26.15625 C-0.04443748 24.27083415 -0.05354619 22.38541744 -0.0625 20.5 C-0.07087891 19.54996094 -0.07925781 18.59992188 -0.08789062 17.62109375 C-0.09111328 16.70457031 -0.09433594 15.78804688 -0.09765625 14.84375 C-0.10289307 14.01037109 -0.10812988 13.17699219 -0.11352539 12.31835938 C0 10 0 10 0.53344727 7.90039062 C1.21433454 5.12695967 0.56484262 2.76145282 0 0 Z " fill="#99C9FE" transform="translate(9,298)"/>
<path d="M0 0 C0 24.75 0 49.5 0 75 C-0.66 75 -1.32 75 -2 75 C-2.33 51.24 -2.66 27.48 -3 3 C-5.64 3.99 -8.28 4.98 -11 6 C-11 5.34 -11 4.68 -11 4 C-9.5437455 3.32880451 -8.08492133 2.66318193 -6.625 2 C-5.81289063 1.62875 -5.00078125 1.2575 -4.1640625 0.875 C-2 0 -2 0 0 0 Z " fill="#0F244D" transform="translate(301,222)"/>
<path d="M0 0 C0.33 0.66 0.66 1.32 1 2 C1.99 2.33 2.98 2.66 4 3 C4 12.24 4 21.48 4 31 C3.01 31.33 2.02 31.66 1 32 C-0.13859688 27.45464898 -0.14895684 23.08912004 -0.125 18.4375 C-0.12886719 17.68275391 -0.13273438 16.92800781 -0.13671875 16.15039062 C-0.1267327 10.4833056 -0.1267327 10.4833056 0.53564453 7.95727539 C1.20037825 5.15539831 0.5701227 2.78726654 0 0 Z " fill="#94C4FE" transform="translate(9,298)"/>
<path d="M0 0 C0.33 0 0.66 0 1 0 C1.04953687 4.19920237 1.08578411 8.39824869 1.10986328 12.59765625 C1.11990427 14.02542078 1.13353981 15.45316483 1.15087891 16.88085938 C1.17521152 18.93624941 1.18650202 20.99136692 1.1953125 23.046875 C1.20578613 24.28276367 1.21625977 25.51865234 1.22705078 26.79199219 C1.01298081 29.81659371 0.59653159 31.46985651 -1 34 C-1.66 33.67 -2.32 33.34 -3 33 C-3.02929977 29.64585201 -3.0468989 26.29173747 -3.0625 22.9375 C-3.07087891 21.99455078 -3.07925781 21.05160156 -3.08789062 20.08007812 C-3.10581103 14.9369232 -2.89259611 10.06741573 -2 5 C-1.67 5 -1.34 5 -1 5 C-0.67 3.35 -0.34 1.7 0 0 Z " fill="#9EC7FE" transform="translate(12,462)"/>
<path d="M0 0 C2.22175281 1.75023895 2.94475643 2.60228592 3.34057617 5.4519043 C3.32486572 6.39976807 3.30915527 7.34763184 3.29296875 8.32421875 C3.28330078 9.35224609 3.27363281 10.38027344 3.26367188 11.43945312 C3.23853516 12.51130859 3.21339844 13.58316406 3.1875 14.6875 C3.17396484 15.77095703 3.16042969 16.85441406 3.14648438 17.97070312 C3.11110643 20.64763405 3.06174189 23.32356838 3 26 C2.34 26 1.68 26 1 26 C-1.18144256 17.72220459 -1.47251492 9.51625723 -1 1 C-0.67 0.67 -0.34 0.34 0 0 Z " fill="#9AC7FE" transform="translate(10,207)"/>
<path d="M0 0 C10.19491402 4.18552663 16.90057672 16.88421679 22 26 C22.54140625 26.9590625 23.0828125 27.918125 23.640625 28.90625 C27.10382695 35.37596793 27.10382695 35.37596793 26.62109375 38.27734375 C26.31365234 39.13005859 26.31365234 39.13005859 26 40 C25.50371094 38.97261719 25.00742187 37.94523437 24.49609375 36.88671875 C15.17043888 17.16898782 15.17043888 17.16898782 0 2 C0 1.34 0 0.68 0 0 Z " fill="#C5EAFA" transform="translate(427,191)"/>
<path d="M0 0 C1.32 0 2.64 0 4 0 C4 6.93 4 13.86 4 21 C3.34 21 2.68 21 2 21 C2 21.66 2 22.32 2 23 C1.34 22.67 0.68 22.34 0 22 C0 14.74 0 7.48 0 0 Z " fill="#A1CCFE" transform="translate(9,260)"/>
<path d="M0 0 C0.33 0 0.66 0 1 0 C1.02932572 3.18748029 1.04690739 6.37492528 1.0625 9.5625 C1.07087891 10.45775391 1.07925781 11.35300781 1.08789062 12.27539062 C1.10629571 17.29997943 0.86266398 22.04817291 0 27 C-2.72407899 23.90935629 -3.39214403 21.97973095 -3.3125 17.875 C-3.30863281 17.00617188 -3.30476562 16.13734375 -3.30078125 15.2421875 C-3 13 -3 13 -1 11 C-0.53709779 8.33757179 -0.53709779 8.33757179 -0.375 5.375 C-0.30023438 4.37210937 -0.22546875 3.36921875 -0.1484375 2.3359375 C-0.09945313 1.56507813 -0.05046875 0.79421875 0 0 Z " fill="#A5CCFE" transform="translate(12,393)"/>
<path d="M0 0 C0.33 0 0.66 0 1 0 C1 5.28 1 10.56 1 16 C-0.32 15.67 -1.64 15.34 -3 15 C-3 10.71 -3 6.42 -3 2 C-2.34 2 -1.68 2 -1 2 C-0.67 1.34 -0.34 0.68 0 0 Z " fill="#9FD4FE" transform="translate(12,282)"/>
<path d="M0 0 C2.55763428 3.12934077 4.17140993 6.28567043 5.75 10 C6.19859375 11.03125 6.6471875 12.0625 7.109375 13.125 C8.04455933 16.14384063 7.8865461 17.09574355 7 20 C5.63311253 17.04738074 4.28370462 14.08709966 2.9375 11.125 C2.54755859 10.28324219 2.15761719 9.44148437 1.75585938 8.57421875 C1.39169922 7.76855469 1.02753906 6.96289062 0.65234375 6.1328125 C0.31195068 5.38918457 -0.02844238 4.64555664 -0.37915039 3.87939453 C-1 2 -1 2 0 0 Z " fill="#9BC7FD" transform="translate(21,563)"/>
<path d="M0 0 C0.66 0 1.32 0 2 0 C2.33 4.62 2.66 9.24 3 14 C2.01 13.67 1.02 13.34 0 13 C-0.83796731 8.34462607 -1.0161692 4.62921525 0 0 Z " fill="#9FCAFE" transform="translate(10,366)"/>
<path d="M0 0 C2.87609207 5.75218414 3.82587241 11.71088393 2 18 C1.34 17.67 0.68 17.34 0 17 C0 11.39 0 5.78 0 0 Z " fill="#BDE2FE" transform="translate(9,312)"/>
<path d="M0 0 C0.99 0.495 0.99 0.495 2 1 C3.47180796 5.82425944 4.25376143 9.92477148 4 15 C2.02201062 13.34548877 1.09206594 12.38794196 0.48828125 9.84375 C0.43027344 9.0703125 0.37226563 8.296875 0.3125 7.5 C0.24675781 6.7265625 0.18101562 5.953125 0.11328125 5.15625 C0.0230872 3.43945285 0 1.71916474 0 0 Z " fill="#B2D8F7" transform="translate(455,234)"/>
<path d="M0 0 C0.33 0 0.66 0 1 0 C1.22171552 2.60365928 1.42784859 5.20696493 1.625 7.8125 C1.68945312 8.55048828 1.75390625 9.28847656 1.8203125 10.04882812 C2.2265625 15.66015625 2.2265625 15.66015625 0 19 C-0.82481968 15.39959663 -1.13516938 12.06648597 -1.125 8.375 C-1.12757812 7.43398437 -1.13015625 6.49296875 -1.1328125 5.5234375 C-1 3 -1 3 0 0 Z " fill="#B1D4FE" transform="translate(10,159)"/>
<path d="M0 0 C0.66 0 1.32 0 2 0 C3.24377393 2.48754786 3.13306235 4.22655301 3.125 7 C3.12757812 7.886875 3.13015625 8.77375 3.1328125 9.6875 C3 12 3 12 2 14 C1.34 13.67 0.68 13.34 0 13 C0 8.71 0 4.42 0 0 Z " fill="#A5CDFE" transform="translate(9,442)"/>
<path d="M0 0 C0.99 0 1.98 0 3 0 C3.29296875 6.0546875 3.29296875 6.0546875 3 8 C2.01 8.66 1.02 9.32 0 10 C-1.125 2.25 -1.125 2.25 0 0 Z " fill="#9DC9FE" transform="translate(10,497)"/>
<path d="M0 0 C0.99 0.33 1.98 0.66 3 1 C3 2.98 3 4.96 3 7 C2.67 7 2.34 7 2 7 C1.67 8.98 1.34 10.96 1 13 C0.34 13 -0.32 13 -1 13 C-1.0272415 11.58344207 -1.04650467 10.16672955 -1.0625 8.75 C-1.07410156 7.96109375 -1.08570313 7.1721875 -1.09765625 6.359375 C-1.00385306 4.09308998 -0.63241063 2.1711105 0 0 Z " fill="#ACD4FE" transform="translate(10,428)"/>
<path d="M0 0 C1.5 1 1.5 1 3 3 C3.27345479 5.71846235 3.13491285 8.25677199 3 11 C1.68 11 0.36 11 -1 11 C-1.02688151 9.35425434 -1.04634123 7.70838587 -1.0625 6.0625 C-1.07410156 5.14597656 -1.08570313 4.22945312 -1.09765625 3.28515625 C-1 1 -1 1 0 0 Z " fill="#A9CDFF" transform="translate(10,207)"/>
<path d="M0 0 C0.33 0.66 0.66 1.32 1 2 C1.99 2.33 2.98 2.66 4 3 C4.1875 6.375 4.1875 6.375 4 10 C3.01 10.66 2.02 11.32 1 12 C0 10 0 10 0.5 8.25 C1.15561413 5.2997364 0.60006289 2.93364077 0 0 Z " fill="#A9D3FF" transform="translate(9,298)"/>
<path d="M0 0 C0.66 0.33 1.32 0.66 2 1 C-0.40016348 5.94151304 -3.52273027 8.04331244 -8 11 C-6.63629701 8.00779732 -5.05091917 5.70973471 -2.875 3.25 C-2.33617187 2.63640625 -1.79734375 2.0228125 -1.2421875 1.390625 C-0.62730469 0.70226562 -0.62730469 0.70226562 0 0 Z " fill="#B4DAF5" transform="translate(225,195)"/>
<path d="M0 0 C0.33 0 0.66 0 1 0 C1 4.62 1 9.24 1 14 C0.34 14 -0.32 14 -1 14 C-1.38133299 12.0085944 -1.71325582 10.00720923 -2 8 C-1.67 7.67 -1.34 7.34 -1 7 C-0.63239269 4.67182036 -0.29758419 2.3381615 0 0 Z " fill="#9FD0FE" transform="translate(11,325)"/>
<path d="M0 0 C0.66 0 1.32 0 2 0 C2.25 6.625 2.25 6.625 0 10 C-0.19412181 8.52168779 -0.38012131 7.04230684 -0.5625 5.5625 C-0.66691406 4.73878906 -0.77132813 3.91507812 -0.87890625 3.06640625 C-0.91886719 2.38449219 -0.95882813 1.70257813 -1 1 C-0.67 0.67 -0.34 0.34 0 0 Z " fill="#A8DDFE" transform="translate(10,270)"/>
<path d="M0 0 C3.21043882 1.38188453 5.04936365 2.92421903 7.25 5.625 C8.03117187 6.57246094 8.03117187 6.57246094 8.828125 7.5390625 C9.40820312 8.26222656 9.40820312 8.26222656 10 9 C9.01 9.495 9.01 9.495 8 10 C6.79557292 8.50260417 5.59114583 7.00520833 4.38671875 5.5078125 C2.87729455 3.74707893 2.87729455 3.74707893 0 2 C0 1.34 0 0.68 0 0 Z " fill="#AFD6F0" transform="translate(427,191)"/>
<path d="M0 0 C0 3.38023517 -0.87455622 5.83468937 -2 9 C-3.32 8.34 -4.64 7.68 -6 7 C-4.02 4.69 -2.04 2.38 0 0 Z " fill="#12203D" transform="translate(62,71)"/>
<path d="M0 0 C-1 3 -1 3 -2.84765625 3.94921875 C-3.57855469 4.19285156 -4.30945313 4.43648437 -5.0625 4.6875 C-6.16271484 5.06455078 -6.16271484 5.06455078 -7.28515625 5.44921875 C-7.85105469 5.63097656 -8.41695312 5.81273437 -9 6 C-9.33 5.34 -9.66 4.68 -10 4 C-8.71086513 3.32845067 -7.41859796 2.66291141 -6.125 2 C-5.40570312 1.62875 -4.68640625 1.2575 -3.9453125 0.875 C-2 0 -2 0 0 0 Z " fill="#9CC7FC" transform="translate(571,645)"/>
<path d="M0 0 C0.99 0.33 1.98 0.66 3 1 C1.8125 2.5625 1.8125 2.5625 0 4 C-2.6875 3.6875 -2.6875 3.6875 -5 3 C-2 1 -2 1 0 0 Z " fill="#18284A" transform="translate(402,508)"/>
<path d="M0 0 C0.99 0.495 0.99 0.495 2 1 C1.67 3.64 1.34 6.28 1 9 C0.67 9 0.34 9 0 9 C0 6.03 0 3.06 0 0 Z " fill="#BBE7FF" transform="translate(9,137)"/>
<path d="M0 0 C0.33 0 0.66 0 1 0 C1 1.98 1 3.96 1 6 C0.67 6 0.34 6 0 6 C0 4.02 0 2.04 0 0 Z " fill="#B1DBFF" transform="translate(9,518)"/>
<path d="M0 0 C1.65 0 3.3 0 5 0 C5 0.33 5 0.66 5 1 C3.35 1 1.7 1 0 1 C0 0.67 0 0.34 0 0 Z " fill="#BBE1FF" transform="translate(137,664)"/>
<path d="M0 0 C1 4 1 4 1 4 Z " fill="#BFFFFF" transform="translate(12,541)"/>
<path d="M0 0 C3 1 3 1 3 1 Z " fill="#AABFFF" transform="translate(132,663)"/>
<path d="" fill="#FFFFFF" transform="translate(0,0)"/>
<path d="" fill="#D4FFFF" transform="translate(0,0)"/>
<path d="M0 0 C0.66 0 1.32 0 2 0 C1.67 0.66 1.34 1.32 1 2 C0.67 1.34 0.34 0.68 0 0 Z " fill="#FFFFFF" transform="translate(638,96)"/>
<path d="M0 0 C0.66 0.66 1.32 1.32 2 2 C1.34 2 0.68 2 0 2 C0 1.34 0 0.68 0 0 Z " fill="#E2E2FF" transform="translate(565,19)"/>
<path d="M0 0 C2 1 2 1 2 1 Z " fill="#D4D4FF" transform="translate(528,663)"/>
<path d="" fill="#BFFFFF" transform="translate(0,0)"/>
<path d="" fill="#BFBFFF" transform="translate(0,0)"/>
<path d="" fill="#FFFFFF" transform="translate(0,0)"/>
<path d="" fill="#D4D4FF" transform="translate(0,0)"/>
<path d="" fill="#D4D4FF" transform="translate(0,0)"/>
<path d="M0 0 C2 1 2 1 2 1 Z " fill="#FFFFFF" transform="translate(72,33)"/>
<path d="M0 0 C2 1 2 1 2 1 Z " fill="#D4D4FF" transform="translate(575,25)"/>
<path d="M0 0 C2 1 2 1 2 1 Z " fill="#FFFFFF" transform="translate(84,25)"/>
<path d="M0 0 C2 1 2 1 2 1 Z " fill="#80FFFF" transform="translate(559,17)"/>
<path d="" fill="#FFFFFF" transform="translate(0,0)"/>
<path d="" fill="#FFFFFF" transform="translate(0,0)"/>
<path d="" fill="#8080FF" transform="translate(0,0)"/>
<path d="" fill="#80FFFF" transform="translate(0,0)"/>
<path d="" fill="#FFFFFF" transform="translate(0,0)"/>
<path d="" fill="#FFFFFF" transform="translate(0,0)"/>
<path d="" fill="#FFFFFF" transform="translate(0,0)"/>
<path d="" fill="#80FFFF" transform="translate(0,0)"/>
<path d="" fill="#FFFFFF" transform="translate(0,0)"/>
<path d="" fill="#FFFFFF" transform="translate(0,0)"/>
<path d="" fill="#FFFFFF" transform="translate(0,0)"/>
<path d="" fill="#FFFFFF" transform="translate(0,0)"/>
<path d="" fill="#FFFFFF" transform="translate(0,0)"/>
<path d="" fill="#80BFFF" transform="translate(0,0)"/>
<path d="" fill="#FFFFFF" transform="translate(0,0)"/>
<path d="" fill="#FFFFFF" transform="translate(0,0)"/>
<path d="" fill="#8080FF" transform="translate(0,0)"/>
<path d="" fill="#FFFFFF" transform="translate(0,0)"/>
<path d="" fill="#FFFFFF" transform="translate(0,0)"/>
<path d="" fill="#AAAAFF" transform="translate(0,0)"/>
<path d="" fill="#80FFFF" transform="translate(0,0)"/>
<path d="" fill="#8080FF" transform="translate(0,0)"/>
<path d="" fill="#FFFFFF" transform="translate(0,0)"/>
<path d="" fill="#80FFFF" transform="translate(0,0)"/>
<path d="" fill="#FFFFFF" transform="translate(0,0)"/>
<path d="" fill="#FFFFFF" transform="translate(0,0)"/>
<path d="" fill="#8080FF" transform="translate(0,0)"/>
<path d="" fill="#FFFFFF" transform="translate(0,0)"/>
<path d="" fill="#FFFFFF" transform="translate(0,0)"/>
<path d="" fill="#FFFFFF" transform="translate(0,0)"/>
<path d="" fill="#80FFFF" transform="translate(0,0)"/>
<path d="" fill="#FFFFFF" transform="translate(0,0)"/>
<path d="" fill="#80FFFF" transform="translate(0,0)"/>
<path d="" fill="#FFFFFF" transform="translate(0,0)"/>
<path d="" fill="#FFFFFF" transform="translate(0,0)"/>
<path d="" fill="#FFFFFF" transform="translate(0,0)"/>
<path d="" fill="#FFFFFF" transform="translate(0,0)"/>
<path d="" fill="#AAAAFF" transform="translate(0,0)"/>
<path d="" fill="#80FFFF" transform="translate(0,0)"/>
<path d="" fill="#80FFFF" transform="translate(0,0)"/>
<path d="" fill="#AAAAFF" transform="translate(0,0)"/>
<path d="" fill="#8080FF" transform="translate(0,0)"/>
<path d="" fill="#FFFFFF" transform="translate(0,0)"/>
<path d="" fill="#FFFFFF" transform="translate(0,0)"/>
<path d="" fill="#FFFFFF" transform="translate(0,0)"/>
<path d="" fill="#FFFFFF" transform="translate(0,0)"/>
<path d="" fill="#FFFFFF" transform="translate(0,0)"/>
<path d="" fill="#80FFFF" transform="translate(0,0)"/>
<path d="" fill="#FFFFFF" transform="translate(0,0)"/>
<path d="" fill="#AAAAFF" transform="translate(0,0)"/>
<path d="" fill="#FFFFFF" transform="translate(0,0)"/>
<path d="" fill="#FFFFFF" transform="translate(0,0)"/>
<path d="" fill="#99CCFF" transform="translate(0,0)"/>
<path d="" fill="#FFFFFF" transform="translate(0,0)"/>
<path d="" fill="#AAAAFF" transform="translate(0,0)"/>
<path d="" fill="#99CCFF" transform="translate(0,0)"/>
<path d="" fill="#FFFFFF" transform="translate(0,0)"/>
<path d="" fill="#FFFFFF" transform="translate(0,0)"/>
<path d="" fill="#8080FF" transform="translate(0,0)"/>
<path d="" fill="#FFFFFF" transform="translate(0,0)"/>
<path d="" fill="#FFFFFF" transform="translate(0,0)"/>
<path d="" fill="#FFFFFF" transform="translate(0,0)"/>
<path d="" fill="#FFFFFF" transform="translate(0,0)"/>
<path d="" fill="#FFFFFF" transform="translate(0,0)"/>
<path d="" fill="#FFFFFF" transform="translate(0,0)"/>
<path d="" fill="#8080FF" transform="translate(0,0)"/>
<path d="" fill="#8080FF" transform="translate(0,0)"/>
<path d="" fill="#FFFFFF" transform="translate(0,0)"/>
<path d="" fill="#FFFFFF" transform="translate(0,0)"/>
<path d="" fill="#8080FF" transform="translate(0,0)"/>
<path d="" fill="#FFFFFF" transform="translate(0,0)"/>
<path d="" fill="#8080FF" transform="translate(0,0)"/>
<path d="" fill="#FFFFFF" transform="translate(0,0)"/>
<path d="" fill="#AAAAFF" transform="translate(0,0)"/>
<path d="" fill="#FFFFFF" transform="translate(0,0)"/>
<path d="" fill="#FFFFFF" transform="translate(0,0)"/>
<path d="" fill="#8080FF" transform="translate(0,0)"/>
<path d="" fill="#FFFFFF" transform="translate(0,0)"/>
<path d="" fill="#FFFFFF" transform="translate(0,0)"/>
<path d="" fill="#FFFFFF" transform="translate(0,0)"/>
<path d="" fill="#80FFFF" transform="translate(0,0)"/>
<path d="" fill="#FFFFFF" transform="translate(0,0)"/>
<path d="" fill="#FFFFFF" transform="translate(0,0)"/>
<path d="" fill="#FFFFFF" transform="translate(0,0)"/>
</svg>
